<?xml version="1.0" standalone="no"?>
<!DOCTYPE svg PUBLIC "-//W3C//DTD SVG 20010904//EN"
 "http://www.w3.org/TR/2001/REC-SVG-20010904/DTD/svg10.dtd">
<svg version="1.0" xmlns="http://www.w3.org/2000/svg"
 width="331.000000pt" height="172.000000pt" viewBox="0 0 331.000000 172.000000"
 preserveAspectRatio="xMidYMid meet">

<g transform="translate(0.000000,172.000000) scale(0.100000,-0.100000)"
fill="#000000" stroke="none">
<path d="M80 870 l0 -790 1570 0 1570 0 0 790 0 790 -1570 0 -1570 0 0 -790z
m3075 0 l0 -725 -1505 0 -1505 0 -3 715 c-1 393 0 721 3 728 3 10 310 12 1507
10 l1503 -3 0 -725z"/>
<path d="M2162 1479 c-57 -7 -121 -44 -147 -83 -9 -13 -18 -46 -22 -74 -7 -60
13 -99 69 -138 38 -26 167 -78 175 -70 6 6 53 -40 53 -52 0 -7 -10 -18 -23
-26 -31 -21 -95 -11 -127 19 -22 21 -36 25 -87 25 -72 0 -79 -9 -53 -68 31
-68 112 -105 230 -105 84 0 131 16 173 60 64 65 57 156 -17 221 -35 30 -125
76 -133 68 -8 -8 -104 46 -110 61 -10 26 26 45 76 40 33 -4 51 -13 73 -36 27
-29 34 -31 80 -27 68 6 75 15 54 69 -20 52 -37 70 -91 93 -55 24 -110 31 -173
23z m-72 -108 c0 -6 -5 -13 -11 -17 -6 -3 -8 -18 -5 -33 5 -22 5 -23 -5 -8
-12 20 -4 67 11 67 6 0 10 -4 10 -9z m-43 -43 c-3 -7 -5 -2 -5 12 0 14 2 19 5
13 2 -7 2 -19 0 -25z m73 -29 c0 -5 -6 -9 -13 -9 -8 0 -14 6 -14 14 0 8 6 12
14 9 7 -3 13 -9 13 -14z m-40 -13 c0 -2 -7 -7 -16 -10 -8 -3 -12 -2 -9 4 6 10
25 14 25 6z m166 -83 c-13 -13 -56 -11 -56 3 0 8 2 14 4 14 2 0 12 3 22 7 13
5 15 3 10 -8 -4 -8 -1 -6 6 4 12 15 13 16 16 1 2 -8 1 -18 -2 -21z m27 -45
c-8 -15 -43 -8 -43 8 0 8 5 12 10 9 6 -3 10 -1 10 5 0 7 5 6 14 -2 8 -7 12
-16 9 -20z m27 -17 c0 -6 -4 -13 -10 -16 -5 -3 -10 1 -10 9 0 9 5 16 10 16 6
0 10 -4 10 -9z m70 -36 c0 -1 -8 -5 -18 -7 -11 -3 -19 0 -19 7 0 7 8 10 19 7
10 -2 18 -6 18 -7z m-25 -35 c3 -5 1 -10 -4 -10 -6 0 -11 5 -11 10 0 6 2 10 4
10 3 0 8 -4 11 -10z"/>
<path d="M668 1472 c-27 -3 -28 -6 -29 -65 -3 -102 3 -202 11 -207 4 -3 10
-23 13 -45 l6 -40 -40 3 c-21 2 -39 7 -39 11 1 18 18 30 38 26 14 -2 22 1 22
11 0 8 -6 14 -14 14 -25 0 -46 -12 -46 -26 0 -8 -4 -14 -10 -14 -13 0 -13 13
1 44 11 23 5 33 -71 130 -123 157 -123 157 -189 154 l-56 -3 -3 -264 c-1 -146
1 -268 6 -273 13 -13 119 -21 126 -10 5 9 9 134 7 225 -1 31 -5 37 -22 37 -14
0 -19 5 -16 13 3 8 -6 22 -20 32 l-24 19 23 12 23 13 -22 1 c-13 0 -23 5 -23
11 0 5 -4 7 -10 4 -5 -3 -10 -2 -10 3 0 6 8 13 17 16 15 6 15 8 3 16 -8 6 -10
10 -5 10 6 0 17 -5 25 -10 13 -9 13 -11 0 -20 -13 -8 -12 -10 4 -10 14 0 17 5
12 25 -5 18 -1 27 15 35 11 7 23 9 26 6 3 -3 -2 -8 -11 -12 -9 -3 -16 -9 -16
-13 0 -11 55 -9 62 2 5 8 8 6 8 -5 0 -9 -6 -19 -12 -22 -7 -3 -1 -3 13 0 23 5
27 1 34 -28 4 -18 7 -37 6 -41 -1 -5 3 -6 8 -3 13 8 42 -4 35 -15 -3 -5 2 -6
10 -3 21 8 20 -10 0 -30 -17 -18 -39 -22 -29 -6 11 17 -5 32 -21 19 -11 -9
-14 -7 -15 12 -1 13 -1 32 0 42 2 18 -14 23 -24 7 -3 -5 -1 -10 4 -10 13 0 10
-22 -3 -31 -14 -11 2 -52 36 -90 39 -43 45 -51 121 -146 l58 -73 53 0 c40 0
55 4 60 16 3 9 6 132 6 274 0 195 -3 261 -12 266 -14 9 -57 11 -100 6z m-153
-220 c-3 -3 -11 0 -18 7 -9 10 -8 11 6 5 10 -3 15 -9 12 -12z m185 -47 c0 -17
-4 -23 -14 -19 -18 7 -17 44 1 44 7 0 13 -11 13 -25z m-355 5 c3 -5 -1 -10 -9
-10 -9 0 -16 5 -16 10 0 6 4 10 9 10 6 0 13 -4 16 -10z m257 -110 c10 0 18 -4
18 -10 0 -18 -26 -11 -46 13 -10 12 -12 16 -4 10 8 -7 22 -13 32 -13z m-289
-44 c4 -10 1 -13 -8 -9 -8 3 -12 9 -9 14 7 12 11 11 17 -5z"/>
<path d="M1033 1464 c-57 -21 -123 -81 -158 -145 -26 -47 -30 -64 -30 -129 1
-64 5 -83 30 -129 77 -139 247 -196 387 -129 77 38 114 71 145 132 23 43 27
64 27 132 0 69 -4 86 -26 125 -33 56 -90 113 -138 136 -48 24 -181 28 -237 7z
m34 -66 c-3 -8 -6 -5 -6 6 -1 11 2 17 5 13 3 -3 4 -12 1 -19z m-46 -15 c12
-15 12 -16 -3 -11 -10 4 -19 1 -22 -8 -3 -8 -10 -14 -15 -14 -5 0 -4 11 2 25
14 29 20 31 38 8z m-61 -17 c0 -11 -19 -15 -25 -6 -3 5 1 10 9 10 9 0 16 -2
16 -4z m57 -38 c-3 -8 -6 -5 -6 6 -1 11 2 17 5 13 3 -3 4 -12 1 -19z m189 2
c49 -24 70 -52 83 -111 8 -36 6 -50 -12 -88 -52 -108 -195 -122 -261 -25 -59
87 -19 203 79 233 46 14 65 13 111 -9z m-211 0 c3 -5 2 -10 -4 -10 -5 0 -13 5
-16 10 -3 6 -2 10 4 10 5 0 13 -4 16 -10z m-51 -14 c21 -10 23 -15 11 -19 -21
-9 -42 1 -42 18 0 18 -1 18 31 1z m21 -46 c-3 -5 -11 -10 -16 -10 -6 0 -7 5
-4 10 3 6 11 10 16 10 6 0 7 -4 4 -10z m460 -40 c3 -5 1 -10 -4 -10 -6 0 -11
5 -11 10 0 6 2 10 4 10 3 0 8 -4 11 -10z m-490 -103 c4 -20 10 -27 20 -23 8 3
17 1 20 -4 3 -4 -1 -11 -7 -13 -7 -3 -1 -6 14 -6 28 -1 51 -21 24 -21 -10 0
-13 -6 -10 -15 4 -8 1 -15 -6 -15 -7 0 -2 -9 11 -21 l24 -20 -24 11 c-19 10
-26 9 -33 -1 -8 -11 -9 -10 -5 3 4 10 -1 18 -15 21 -14 4 -19 11 -14 23 4 11
2 15 -8 11 -8 -3 -17 1 -20 9 -3 8 -1 12 4 9 5 -3 18 -2 27 4 17 9 17 10 1 16
-13 5 -18 18 -17 44 1 37 3 35 14 -12z m-25 -25 c0 -5 -7 -9 -15 -9 -8 0 -15
4 -15 9 0 4 7 8 15 8 8 0 15 -4 15 -8z m140 -92 c0 -5 -5 -10 -11 -10 -5 0 -7
5 -4 10 3 6 8 10 11 10 2 0 4 -4 4 -10z"/>
<path d="M970 1058 c0 -9 -6 -19 -12 -21 -10 -4 -10 -6 0 -6 14 -1 28 26 18
36 -3 4 -6 -1 -6 -9z"/>
<path d="M1605 1467 c-53 -21 -84 -48 -105 -92 -48 -99 16 -196 165 -245 22
-7 48 -14 57 -15 24 -2 58 -34 58 -55 0 -44 -106 -47 -150 -5 -22 21 -36 25
-88 25 l-62 0 0 -31 c0 -44 69 -112 130 -130 71 -20 187 -16 235 8 81 42 114
127 80 204 -13 28 -36 51 -78 79 -33 22 -64 41 -71 41 -41 5 -54 8 -76 20 -14
8 -36 22 -49 31 -24 17 -24 18 -6 38 33 37 109 23 148 -27 16 -20 25 -23 65
-19 26 3 53 5 61 5 21 1 6 67 -25 108 -37 49 -99 73 -187 72 -40 0 -85 -6
-102 -12z m-29 -103 c-4 -9 -9 -15 -11 -12 -3 3 -3 13 1 22 4 9 9 15 11 12 3
-3 3 -13 -1 -22z m-16 -34 c-8 -5 -19 -10 -25 -10 -5 0 -3 5 5 10 8 5 20 10
25 10 6 0 3 -5 -5 -10z m15 -20 c3 -5 1 -10 -4 -10 -6 0 -11 5 -11 10 0 6 2
10 4 10 3 0 8 -4 11 -10z m38 -10 c-4 -4 -19 -11 -31 -15 -23 -7 -24 -7 -5 12
10 11 24 17 31 15 7 -3 10 -8 5 -12z m64 -72 c-3 -8 -6 -5 -6 6 -1 11 2 17 5
13 3 -3 4 -12 1 -19z m58 -19 c0 -9 -11 -14 -27 -14 -32 -1 -36 9 -10 24 21
13 37 9 37 -10z m39 -50 c-8 -14 -54 -10 -54 4 0 9 10 12 30 9 16 -2 27 -8 24
-13z m16 -19 c0 -5 -5 -10 -11 -10 -5 0 -7 5 -4 10 3 6 8 10 11 10 2 0 4 -4 4
-10z m58 -29 c11 -6 10 -10 -4 -15 -9 -3 -19 -4 -22 -1 -3 3 1 5 9 5 11 0 11
2 -1 10 -8 5 -10 10 -5 10 6 0 16 -4 23 -9z m27 -40 c3 -5 2 -12 -3 -15 -5 -3
-9 1 -9 9 0 17 3 19 12 6z"/>
<path d="M2692 1458 c-6 -6 -12 -15 -12 -20 0 -4 -45 -120 -100 -258 -55 -139
-100 -256 -100 -261 0 -5 31 -9 70 -9 l70 0 20 40 c11 22 28 40 38 41 9 0 42
2 72 5 96 7 127 -2 147 -44 18 -36 19 -37 82 -40 35 -2 68 1 74 7 10 10 -9 62
-141 381 l-68 165 -70 3 c-45 2 -74 -2 -82 -10z m42 -153 c-4 -8 -13 -15 -22
-15 -13 0 -12 3 4 15 24 18 25 18 18 0z m46 -15 c0 -5 -2 -10 -4 -10 -3 0 -8
5 -11 10 -3 6 -1 10 4 10 6 0 11 -4 11 -10z m-70 -30 c-20 -13 -33 -13 -25 0
3 6 14 10 23 10 15 0 15 -2 2 -10z m99 -20 c6 0 11 -5 11 -11 0 -5 -4 -7 -10
-4 -5 3 -10 2 -10 -4 0 -16 22 -25 30 -11 5 8 10 3 14 -15 7 -29 28 -55 44
-55 5 0 12 -11 14 -25 3 -14 1 -25 -3 -25 -5 0 -8 -3 -8 -7 3 -20 -3 -57 -8
-45 -7 19 -23 14 -16 -5 4 -12 0 -11 -11 5 -12 15 -28 22 -50 22 l-34 0 27 29
c23 26 26 27 29 10 7 -38 17 -18 14 26 -2 26 -8 42 -14 39 -5 -3 -7 -12 -4
-20 3 -7 -3 -18 -13 -23 -20 -11 -88 -3 -97 11 -7 10 36 120 51 130 5 4 15 1
21 -7 6 -8 16 -15 23 -15z m51 3 c0 -12 -2 -12 -15 1 -8 8 -15 17 -15 20 0 3
7 3 15 0 8 -4 15 -13 15 -21z m33 -73 c-3 -11 -9 -17 -15 -14 -5 3 -4 12 3 20
16 19 18 18 12 -6z m-218 -30 c-3 -4 -14 -10 -25 -13 -17 -4 -18 -2 -10 14 6
10 17 16 25 13 8 -4 13 -10 10 -14z m30 -28 c16 -11 34 -49 28 -56 -11 -11
-23 -6 -23 10 0 10 -7 14 -17 12 -10 -2 -17 -9 -16 -15 1 -5 -10 -16 -24 -22
l-26 -12 18 27 c14 22 15 28 4 36 -10 6 -7 7 9 3 12 -4 22 -3 21 2 -4 23 7 29
26 15z m235 -22 c0 -11 6 -20 13 -21 8 0 8 -2 -2 -6 -11 -4 -11 -7 0 -14 9 -5
5 -10 -14 -15 -32 -7 -44 0 -30 18 6 7 9 23 8 36 -1 13 4 22 12 22 7 0 13 -9
13 -20z"/>
<path d="M750 813 c-64 -23 -124 -59 -154 -95 -46 -54 -80 -141 -72 -188 4
-19 6 -43 7 -54 0 -33 42 -109 83 -152 75 -76 204 -104 311 -67 55 20 160 112
153 134 -3 8 -31 25 -62 38 l-58 25 -37 -39 c-37 -40 -37 -40 -98 -34 -98 9
-153 66 -153 157 0 74 73 145 148 145 38 0 122 -36 122 -52 0 -5 7 -11 15 -15
17 -6 125 40 125 54 0 19 -72 89 -118 115 -27 15 -57 25 -69 22 -13 -2 -23 0
-23 4 0 10 -95 11 -120 2z m-25 -83 c3 -5 1 -10 -4 -10 -6 0 -11 5 -11 10 0 6
2 10 4 10 3 0 8 -4 11 -10z m37 -22 c-6 -6 -15 -8 -19 -4 -4 4 -1 11 7 16 19
12 27 3 12 -12z m-77 -18 c-3 -4 0 -11 5 -13 6 -3 5 -4 -1 -3 -7 1 -13 10 -15
19 -1 9 2 15 7 11 5 -3 7 -9 4 -14z m340 10 c3 -5 1 -10 -4 -10 -6 0 -11 5
-11 10 0 6 2 10 4 10 3 0 8 -4 11 -10z m-375 -83 c0 -5 -4 -5 -10 -2 -5 3 -10
14 -10 23 0 15 2 15 10 2 5 -8 10 -19 10 -23z m17 11 c2 -17 0 -19 -7 -8 -5 8
-6 18 -4 22 8 12 10 10 11 -14z m-57 -40 c0 -15 -5 -30 -10 -33 -6 -4 -8 -11
-5 -16 7 -11 26 -12 24 -1 -1 4 -1 17 0 30 2 34 21 16 21 -19 0 -23 -4 -29
-23 -29 -12 0 -28 -9 -35 -20 -7 -12 -17 -18 -23 -14 -6 3 -3 11 8 19 15 11
16 18 7 55 -10 34 -9 43 2 47 8 3 14 13 14 22 0 14 2 14 10 1 5 -8 10 -27 10
-42z m-25 -128 c3 -5 2 -10 -4 -10 -5 0 -13 5 -16 10 -3 6 -2 10 4 10 5 0 13
-4 16 -10z m62 -16 c-3 -3 -12 -4 -19 -1 -8 3 -5 6 6 6 11 1 17 -2 13 -5z
m363 -94 c0 -5 -2 -10 -4 -10 -3 0 -8 5 -11 10 -3 6 -1 10 4 10 6 0 11 -4 11
-10z"/>
<path d="M580 580 c0 -5 5 -10 11 -10 5 0 7 5 4 10 -3 6 -8 10 -11 10 -2 0 -4
-4 -4 -10z"/>
<path d="M1854 809 c-17 -5 -51 -26 -75 -47 -41 -37 -43 -42 -47 -103 -4 -61
-2 -66 32 -105 38 -44 130 -92 187 -96 35 -3 69 -33 69 -62 0 -44 -105 -44
-151 0 -23 22 -34 25 -85 22 l-59 -3 2 -35 c5 -97 196 -170 330 -126 103 34
148 126 108 216 -20 45 -103 106 -157 117 -34 6 -77 26 -115 54 -20 14 -21 18
-8 35 10 14 26 19 59 19 37 0 51 -6 79 -33 33 -33 49 -35 140 -23 16 2 5 59
-19 95 -49 71 -183 106 -290 75z m-31 -93 c3 -8 0 -17 -7 -19 -10 -4 -12 1 -9
14 6 23 9 24 16 5z m7 -68 c0 6 7 9 15 6 22 -9 18 -22 -7 -26 -14 -2 -22 -9
-20 -18 3 -13 1 -13 -10 -1 -11 11 -11 14 0 18 10 4 10 8 0 21 -12 15 -11 16
5 3 10 -8 17 -9 17 -3z m150 -98 c-5 -8 -20 -15 -34 -15 -30 -1 -30 -1 -12 17
19 20 57 18 46 -2z m33 -52 c-2 -5 -13 -8 -24 -8 -10 0 -19 3 -19 8 0 4 11 7
24 7 13 0 22 -3 19 -7z m27 -18 c0 -5 -7 -10 -16 -10 -8 0 -12 5 -9 10 3 6 10
10 16 10 5 0 9 -4 9 -10z m50 -30 c8 -5 11 -10 5 -10 -5 0 -17 5 -25 10 -8 5
-10 10 -5 10 6 0 17 -5 25 -10z m-13 -52 c-3 -8 -6 -5 -6 6 -1 11 2 17 5 13 3
-3 4 -12 1 -19z"/>
<path d="M1323 798 c-5 -7 -47 -107 -92 -223 -45 -116 -91 -229 -102 -252 -31
-69 -29 -73 50 -73 l69 0 20 38 19 37 109 0 109 0 20 -37 20 -38 67 0 c37 0
70 4 73 10 3 5 -10 49 -30 97 -20 49 -70 169 -110 268 l-74 180 -69 3 c-47 2
-72 -1 -79 -10z m42 -157 c-3 -6 -14 -11 -23 -11 -13 0 -13 2 4 14 21 15 30
14 19 -3z m-30 -41 c-3 -5 -12 -10 -18 -10 -7 0 -6 4 3 10 19 12 23 12 15 0z
m151 -27 c-4 -4 -11 -1 -16 7 -16 25 -11 35 7 17 9 -9 13 -20 9 -24z m-66 12
c0 -8 8 -15 18 -15 14 0 15 -2 2 -10 -13 -8 -13 -12 3 -27 17 -17 18 -17 11 0
-3 9 -2 17 4 17 17 0 22 -41 6 -47 -8 -3 -13 -11 -11 -18 8 -19 -31 -37 -66
-29 -53 11 -57 19 -31 71 13 25 24 52 24 60 0 7 9 13 20 13 11 0 20 -7 20 -15z
m100 -76 c0 -11 -4 -18 -9 -14 -5 3 -12 1 -15 -4 -3 -5 9 -11 26 -15 30 -6 31
-7 12 -21 -15 -11 -16 -14 -4 -15 12 0 12 -2 2 -9 -8 -4 -13 -11 -13 -15 1 -3
1 -16 1 -28 0 -16 -3 -19 -11 -11 -6 6 -18 9 -25 6 -8 -3 -14 -1 -14 5 0 5
-11 8 -25 7 -30 -4 -44 14 -21 27 9 5 16 16 16 23 0 23 18 17 24 -7 2 -13 4
-6 2 15 -2 33 2 40 21 48 13 5 23 13 23 19 0 5 2 10 5 10 3 0 5 -9 5 -21z
m-214 -28 c-7 -11 -46 -21 -46 -12 0 13 13 21 32 21 11 0 17 -4 14 -9z m44
-54 c17 -30 6 -49 -14 -22 -13 18 -42 13 -31 -6 4 -5 0 -9 -9 -9 -8 0 -16 -6
-19 -12 -2 -7 -8 -10 -12 -5 -5 4 4 21 20 37 16 17 25 30 21 30 -4 0 -4 5 -1
11 10 15 28 6 45 -24z m214 11 c-4 -6 1 -17 11 -25 11 -7 13 -13 7 -13 -7 0
-12 -7 -12 -16 0 -8 -4 -12 -10 -9 -5 3 -10 1 -10 -4 0 -6 -5 -11 -11 -11 -7
0 -8 11 -3 33 4 17 7 38 7 45 0 6 7 12 14 12 8 0 11 -5 7 -12z m-174 -2 c0 -3
-4 -8 -10 -11 -5 -3 -10 -1 -10 4 0 6 5 11 10 11 6 0 10 -2 10 -4z"/>
<path d="M2432 798 c-5 -7 -38 -83 -72 -168 -34 -85 -81 -202 -105 -260 -24
-58 -41 -108 -39 -112 3 -5 34 -8 69 -8 65 0 65 0 90 40 l26 41 107 -3 107 -3
18 -37 17 -38 68 0 c38 0 71 3 75 6 5 6 -29 104 -63 179 -9 22 -28 65 -40 95
-13 30 -29 69 -36 85 -7 17 -24 61 -38 99 -15 38 -31 75 -37 83 -15 17 -133
18 -147 1z m38 -152 c0 -7 -11 -16 -25 -18 -13 -3 -22 -1 -19 3 3 5 12 9 20 9
8 0 14 5 14 10 0 6 2 10 5 10 3 0 5 -6 5 -14z m40 -16 c0 -5 -2 -10 -4 -10 -3
0 -8 5 -11 10 -3 6 -1 10 4 10 6 0 11 -4 11 -10z m-60 -24 c0 -2 -7 -6 -15
-10 -8 -3 -15 -1 -15 4 0 6 7 10 15 10 8 0 15 -2 15 -4z m100 -39 c11 -4 11
-6 -3 -6 -10 -1 -15 -6 -12 -11 4 -6 15 -8 25 -5 22 7 35 -31 14 -39 -8 -3
-14 -10 -14 -15 0 -5 14 -3 30 6 17 8 28 19 25 24 -4 5 -1 9 4 9 6 0 11 -9 11
-21 0 -11 -4 -18 -9 -14 -5 3 -12 1 -16 -5 -3 -5 3 -10 15 -10 17 0 20 -5 16
-27 -2 -16 -5 -41 -5 -58 -1 -21 -4 -26 -12 -18 -6 6 -18 9 -25 6 -8 -3 -14 0
-14 6 0 6 -14 11 -32 11 -29 0 -30 1 -16 18 9 9 18 24 21 32 3 11 7 8 15 -10
l11 -25 0 28 c1 27 -21 38 -34 17 -8 -13 -69 -7 -89 9 -12 11 -13 16 0 39 8
15 21 45 30 67 15 40 15 40 33 19 9 -11 23 -23 31 -27z m46 6 c-4 -4 -11 -1
-16 7 -16 25 -11 35 7 17 9 -9 13 -20 9 -24z m-180 -92 c-7 -11 -46 -21 -46
-12 0 13 13 21 32 21 11 0 17 -4 14 -9z m32 -33 c15 -20 24 -58 13 -58 -5 0
-13 9 -16 21 -5 16 -10 18 -21 8 -7 -6 -11 -15 -8 -20 3 -5 -2 -9 -10 -9 -9 0
-16 -4 -16 -10 0 -5 -4 -10 -10 -10 -17 0 -11 16 15 44 13 14 22 26 19 26 -3
0 -2 5 1 10 8 14 20 13 33 -2z m229 -23 c6 -14 7 -25 2 -25 -5 0 -9 -8 -9 -17
0 -15 -2 -15 -9 -4 -8 12 -10 12 -14 0 -2 -8 -2 0 0 16 3 17 5 36 6 43 1 19
11 14 24 -13z m-177 11 c0 -2 -7 -7 -16 -10 -8 -3 -12 -2 -9 4 6 10 25 14 25
6z"/>
</g>
</svg>
